<?xml version="1.0"?>
<svg xmlns="http://www.w3.org/2000/svg" xmlns:xlink="http://www.w3.org/1999/xlink" version="1.1" id="Layer_1" x="0px" y="0px" viewBox="0 0 512 512" style="enable-background:new 0 0 512 512;" xml:space="preserve" width="512px" height="512px" class=""><g transform="matrix(0.580934 0 0 0.580934 107.281 107.281)"><g>
	<path style="fill:#ECF0F1;" d="M494.345,512H17.655C7.91,512,0,504.09,0,494.345V70.621h512v423.724   C512,504.09,504.09,512,494.345,512" data-original="#ECF0F1" class=""/>
	<path style="fill:#35495E;" d="M512,70.621H0V17.655C0,7.91,7.91,0,17.655,0h476.69C504.09,0,512,7.91,512,17.655V70.621z" data-original="#35495E" class=""/>
	<path style="fill:#E64C3C;" d="M44.138,35.31c0,4.873-3.955,8.828-8.828,8.828s-8.828-3.955-8.828-8.828s3.955-8.828,8.828-8.828   S44.138,30.438,44.138,35.31" data-original="#E64C3C" class=""/>
	<path style="fill:#F0C419;" d="M79.448,35.31c0,4.873-3.955,8.828-8.828,8.828s-8.828-3.955-8.828-8.828s3.955-8.828,8.828-8.828   S79.448,30.438,79.448,35.31" data-original="#F0C419" class=""/>
	<path style="fill:#24AE5F;" d="M114.759,35.31c0,4.873-3.955,8.828-8.828,8.828c-4.873,0-8.828-3.955-8.828-8.828   s3.955-8.828,8.828-8.828C110.804,26.483,114.759,30.438,114.759,35.31" data-original="#24AE5F" class=""/>
	<path style="fill:#E64C3C;" d="M70.621,132.414H52.966c-4.873,0-8.828-3.955-8.828-8.828s3.955-8.828,8.828-8.828h17.655   c4.873,0,8.828,3.955,8.828,8.828S75.494,132.414,70.621,132.414" data-original="#E64C3C" class=""/>
	<path style="fill:#F0C419;" d="M353.103,132.414H105.931c-4.873,0-8.828-3.955-8.828-8.828s3.955-8.828,8.828-8.828h247.172   c4.873,0,8.828,3.955,8.828,8.828S357.976,132.414,353.103,132.414" data-original="#F0C419" class=""/>
	<path style="fill:#24AE5F;" d="M423.724,132.414h-35.31c-4.873,0-8.828-3.955-8.828-8.828s3.955-8.828,8.828-8.828h35.31   c4.882,0,8.828,3.955,8.828,8.828S428.606,132.414,423.724,132.414" data-original="#24AE5F" class=""/>
	<path style="fill:#285680;" d="M256,185.379H52.966c-4.873,0-8.828-3.955-8.828-8.828c0-4.873,3.955-8.828,8.828-8.828H256   c4.873,0,8.828,3.955,8.828,8.828C264.828,181.425,260.873,185.379,256,185.379" data-original="#285680"/>
	<path style="fill:#E96360;" d="M423.724,185.379H291.31c-4.873,0-8.828-3.955-8.828-8.828c0-4.873,3.955-8.828,8.828-8.828h132.414   c4.882,0,8.828,3.955,8.828,8.828C432.552,181.425,428.606,185.379,423.724,185.379" data-original="#E96360"/>
	<path style="fill:#26B99A;" d="M70.621,238.345H52.966c-4.873,0-8.828-3.955-8.828-8.828s3.955-8.828,8.828-8.828h17.655   c4.873,0,8.828,3.955,8.828,8.828S75.494,238.345,70.621,238.345" data-original="#26B99A"/>
	<path style="fill:#F0C419;" d="M353.103,238.345H105.931c-4.873,0-8.828-3.955-8.828-8.828s3.955-8.828,8.828-8.828h247.172   c4.873,0,8.828,3.955,8.828,8.828S357.976,238.345,353.103,238.345" data-original="#F0C419" class=""/>
	<path style="fill:#E57E25;" d="M423.724,238.345h-35.31c-4.873,0-8.828-3.955-8.828-8.828s3.955-8.828,8.828-8.828h35.31   c4.882,0,8.828,3.955,8.828,8.828S428.606,238.345,423.724,238.345" data-original="#E57E25"/>
	<path style="fill:#285680;" d="M256,291.31H52.966c-4.873,0-8.828-3.955-8.828-8.828c0-4.873,3.955-8.828,8.828-8.828H256   c4.873,0,8.828,3.955,8.828,8.828C264.828,287.356,260.873,291.31,256,291.31" data-original="#285680"/>
	<path style="fill:#24AE5F;" d="M423.724,291.31H291.31c-4.873,0-8.828-3.955-8.828-8.828c0-4.873,3.955-8.828,8.828-8.828h132.414   c4.882,0,8.828,3.955,8.828,8.828C432.552,287.356,428.606,291.31,423.724,291.31" data-original="#24AE5F" class=""/>
	<path style="fill:#E64C3C;" d="M70.621,344.276H52.966c-4.873,0-8.828-3.955-8.828-8.828s3.955-8.828,8.828-8.828h17.655   c4.873,0,8.828,3.955,8.828,8.828S75.494,344.276,70.621,344.276" data-original="#E64C3C" class=""/>
	<path style="fill:#9777A8;" d="M353.103,344.276H105.931c-4.873,0-8.828-3.955-8.828-8.828s3.955-8.828,8.828-8.828h247.172   c4.873,0,8.828,3.955,8.828,8.828S357.976,344.276,353.103,344.276" data-original="#9777A8" class=""/>
	<path style="fill:#285680;" d="M256,397.241H52.966c-4.873,0-8.828-3.955-8.828-8.828s3.955-8.828,8.828-8.828H256   c4.873,0,8.828,3.955,8.828,8.828S260.873,397.241,256,397.241" data-original="#285680"/>
	<path style="fill:#E64C3C;" d="M342.793,397.241H291.31c-4.873,0-8.828-3.955-8.828-8.828s3.955-8.828,8.828-8.828h51.483   c4.873,0,8.828,3.955,8.828,8.828S347.666,397.241,342.793,397.241" data-original="#E64C3C" class=""/>
	<path style="fill:#F29C1F;" d="M512,423.724C512,472.479,472.47,512,423.724,512c-48.755,0-88.276-39.521-88.276-88.276   s39.521-88.276,88.276-88.276C472.47,335.448,512,374.969,512,423.724" data-original="#F29C1F" class=""/>
	<g>
		<path style="fill:#FFFFFF" d="M388.423,467.862c-2.684,0-5.332-1.218-7.071-3.531l-26.483-35.31    c-2.357-3.134-2.357-7.459,0-10.593l26.483-35.31c2.931-3.902,8.457-4.696,12.359-1.766c3.902,2.922,4.687,8.457,1.766,12.359    l-22.51,30.014l22.51,30.014c2.922,3.902,2.136,9.437-1.766,12.359C392.121,467.288,390.259,467.862,388.423,467.862" data-original="#FFFFFF" class="active-path"/>
		<path style="fill:#FFFFFF" d="M459.026,467.862c-1.845,0-3.699-0.574-5.288-1.766c-3.902-2.922-4.696-8.457-1.766-12.359    l22.51-30.014l-22.51-30.014c-2.931-3.902-2.136-9.437,1.766-12.359c3.902-2.94,9.437-2.136,12.359,1.766l26.483,35.31    c2.348,3.134,2.348,7.459,0,10.593l-26.483,35.31C464.358,466.644,461.718,467.862,459.026,467.862" data-original="#FFFFFF" class="active-path"/>
		<path style="fill:#FFFFFF" d="M414.905,476.69c-0.574,0-1.156-0.053-1.739-0.177c-4.776-0.953-7.883-5.605-6.921-10.381    l17.655-88.276c0.945-4.785,5.614-7.874,10.381-6.921c4.776,0.953,7.883,5.605,6.921,10.381l-17.655,88.276    C422.718,473.785,419.028,476.69,414.905,476.69" data-original="#FFFFFF" class="active-path"/>
	</g>
</g></g> </svg>
